<svg width="38" height="38" viewBox="0 0 38 38" fill="none" xmlns="http://www.w3.org/2000/svg" xmlns:xlink="http://www.w3.org/1999/xlink">
<path d="M19.5,11.333C19.5,10.505 18.828,9.833 18,9.833C17.171,9.833 16.5,10.505 16.5,11.333L19.5,11.333ZM16.5,18C16.5,18.829 17.171,19.5 18,19.5C18.828,19.5 19.5,18.829 19.5,18L16.5,18ZM18,23.167C17.171,23.167 16.5,23.838 16.5,24.667C16.5,25.495 17.171,26.167 18,26.167L18,23.167ZM18.016,26.167C18.845,26.167 19.516,25.495 19.516,24.667C19.516,23.838 18.845,23.167 18.016,23.167L18.016,26.167ZM33.166,18C33.166,26.376 26.376,33.167 18,33.167L18,36.167C28.033,36.167 36.166,28.033 36.166,18L33.166,18ZM18,33.167C9.623,33.167 2.833,26.376 2.833,18L-0.167,18C-0.167,28.033 7.967,36.167 18,36.167L18,33.167ZM2.833,18C2.833,9.624 9.623,2.833 18,2.833L18,-0.167C7.967,-0.167 -0.167,7.967 -0.167,18L2.833,18ZM18,2.833C26.376,2.833 33.166,9.624 33.166,18L36.166,18C36.166,7.967 28.033,-0.167 18,-0.167L18,2.833ZM16.5,11.333L16.5,18L19.5,18L19.5,11.333L16.5,11.333ZM18,26.167L18.016,26.167L18.016,23.167L18,23.167L18,26.167Z" fill="#DA0606"/>
</svg>
