<svg width="24" height="20" viewBox="0 0 24 20" fill="none" xmlns="http://www.w3.org/2000/svg" xmlns:xlink="http://www.w3.org/1999/xlink">
<path d="M23.708,10.708L14.707,19.708C14.52,19.895 14.265,20.001 14,20.001C13.735,20.001 13.48,19.895 13.293,19.708C13.105,19.52 12.999,19.265 12.999,19C12.999,18.735 13.105,18.48 13.293,18.293L20.586,11L1,11C0.735,11 0.48,10.895 0.293,10.707C0.105,10.52 0,10.265 0,10C0,9.735 0.105,9.48 0.293,9.293C0.48,9.105 0.735,9 1,9L20.586,9L13.293,1.708C13.105,1.52 12.999,1.265 12.999,1C12.999,0.735 13.105,0.48 13.293,0.293C13.48,0.105 13.735,0 14,0C14.265,0 14.52,0.105 14.707,0.293L23.708,9.293C23.8,9.385 23.874,9.496 23.925,9.617C23.975,9.739 24.001,9.869 24.001,10C24.001,10.131 23.975,10.262 23.925,10.383C23.874,10.504 23.8,10.615 23.708,10.708Z" fill="#FFFFFF"/>
</svg>
