<svg width="14" height="26" viewBox="0 0 14 26" fill="none" xmlns="http://www.w3.org/2000/svg" xmlns:xlink="http://www.w3.org/1999/xlink">
<path d="M0.186,0.383C0.438,0.168 0.765,0.061 1.096,0.087C1.426,0.113 1.733,0.268 1.948,0.52L11.948,12.187C12.142,12.413 12.249,12.702 12.249,13C12.249,13.298 12.142,13.587 11.948,13.813L1.948,25.48C1.729,25.719 1.425,25.864 1.101,25.883C0.778,25.903 0.459,25.796 0.212,25.585C-0.034,25.373 -0.188,25.075 -0.218,24.751C-0.248,24.428 -0.152,24.106 0.051,23.853L9.353,13L0.051,2.147C-0.164,1.895 -0.271,1.569 -0.246,1.238C-0.221,0.908 -0.066,0.601 0.185,0.385L0.186,0.383Z" clip-rule="evenodd" fill-rule="evenodd" fill="#FFFFFF"/>
</svg>
