<svg width="24" height="20" viewBox="0 0 24 20" fill="none" xmlns="http://www.w3.org/2000/svg" xmlns:xlink="http://www.w3.org/1999/xlink">
<path d="M22.708,10.708L13.707,19.708C13.52,19.895 13.265,20.001 13,20.001C12.735,20.001 12.48,19.895 12.293,19.708C12.105,19.52 11.999,19.265 11.999,19C11.999,18.735 12.105,18.48 12.293,18.293L19.586,11L0,11C-0.265,11 -0.52,10.895 -0.707,10.707C-0.895,10.52 -1,10.265 -1,10C-1,9.735 -0.895,9.48 -0.707,9.293C-0.52,9.105 -0.265,9 0,9L19.586,9L12.293,1.708C12.105,1.52 11.999,1.265 11.999,1C11.999,0.735 12.105,0.48 12.293,0.293C12.48,0.105 12.735,-0.001 13,-0.001C13.265,-0.001 13.52,0.105 13.707,0.293L22.708,9.293C22.8,9.385 22.874,9.496 22.925,9.617C22.975,9.738 23.001,9.869 23.001,10C23.001,10.131 22.975,10.262 22.925,10.383C22.874,10.504 22.8,10.615 22.708,10.708Z" fill="#FFFFFF"/>
</svg>
