<svg width="16" height="8" viewBox="0 0 16 8" fill="none" xmlns="http://www.w3.org/2000/svg" xmlns:xlink="http://www.w3.org/1999/xlink">
<path d="M0.43,0.512C0.494,0.437 0.572,0.376 0.66,0.331C0.748,0.287 0.844,0.26 0.942,0.252C1.04,0.245 1.139,0.257 1.233,0.287C1.327,0.318 1.413,0.367 1.488,0.431L8,6.012L14.512,0.431C14.664,0.309 14.857,0.251 15.051,0.269C15.245,0.287 15.424,0.38 15.551,0.528C15.678,0.675 15.742,0.867 15.73,1.061C15.718,1.255 15.632,1.437 15.488,1.569L8.488,7.569C8.352,7.685 8.179,7.749 8,7.749C7.821,7.749 7.648,7.685 7.512,7.569L0.512,1.569C0.361,1.439 0.268,1.255 0.253,1.057C0.238,0.859 0.302,0.663 0.431,0.512L0.43,0.512Z" clip-rule="evenodd" fill-rule="evenodd" fill="#000000"/>
</svg>
