<svg width="14" height="26" viewBox="0 0 14 26" fill="none" xmlns="http://www.w3.org/2000/svg" xmlns:xlink="http://www.w3.org/1999/xlink">
<path d="M0.186,-0.617C0.438,-0.832 0.765,-0.939 1.096,-0.913C1.426,-0.887 1.733,-0.732 1.948,-0.48L11.948,11.187C12.142,11.413 12.249,11.702 12.249,12C12.249,12.298 12.142,12.587 11.948,12.813L1.948,24.48C1.729,24.719 1.425,24.864 1.101,24.883C0.778,24.903 0.459,24.796 0.212,24.585C-0.034,24.373 -0.188,24.075 -0.218,23.751C-0.248,23.428 -0.152,23.106 0.051,22.853L9.353,12L0.051,1.147C-0.164,0.895 -0.271,0.569 -0.246,0.238C-0.221,-0.092 -0.066,-0.399 0.185,-0.615L0.186,-0.617Z" clip-rule="evenodd" fill-rule="evenodd" fill="#FFFFFF"/>
</svg>
