<svg width="92" height="80" viewBox="0 0 92 80" fill="none" xmlns="http://www.w3.org/2000/svg" xmlns:xlink="http://www.w3.org/1999/xlink">
<path d="M82,80C84.387,80 86.676,79.052 88.364,77.364C90.052,75.676 91,73.387 91,71L91,49.022C91,46.635 90.052,44.346 88.364,42.658C86.676,40.97 84.387,40.022 82,40.022L69.508,40.022C69.508,36.86 69.694,33.698 70.066,30.536C70.624,27.188 71.554,24.212 72.856,21.608C74.158,19.004 75.835,16.955 77.887,15.461C79.927,13.787 82.531,12.95 85.699,12.95L85.699,-1C80.491,-1 75.931,0.116 72.019,2.348C68.134,4.552 64.796,7.604 62.254,11.276C59.695,15.318 57.81,19.75 56.674,24.398C55.525,29.526 54.964,34.767 55,40.022L55,71C55,73.387 55.948,75.676 57.636,77.364C59.324,79.052 61.613,80 64,80L82,80ZM28,80C30.387,80 32.676,79.052 34.364,77.364C36.052,75.676 37,73.387 37,71L37,49.022C37,46.635 36.052,44.346 34.364,42.658C32.676,40.97 30.387,40.022 28,40.022L15.508,40.022C15.508,36.86 15.694,33.698 16.066,30.536C16.63,27.188 17.56,24.212 18.856,21.608C20.158,19.004 21.835,16.955 23.887,15.461C25.927,13.787 28.531,12.95 31.699,12.95L31.699,-1C26.491,-1 21.931,0.116 18.019,2.348C14.134,4.552 10.796,7.604 8.254,11.276C5.695,15.318 3.81,19.75 2.674,24.398C1.526,29.526 0.964,34.767 1,40.022L1,71C1,73.387 1.948,75.676 3.636,77.364C5.324,79.052 7.613,80 10,80L28,80Z" fill="#0A0117"/>
</svg>
