<svg width="34" height="34" viewBox="0 0 34 34" fill="none" xmlns="http://www.w3.org/2000/svg" xmlns:xlink="http://www.w3.org/1999/xlink">
<path d="M17.713,-0.667C19.588,-0.662 20.54,-0.652 21.361,-0.628L21.685,-0.617C22.058,-0.603 22.426,-0.587 22.871,-0.567C24.645,-0.483 25.855,-0.203 26.916,0.208C28.016,0.632 28.943,1.205 29.87,2.13C30.717,2.963 31.373,3.971 31.791,5.083C32.203,6.145 32.483,7.355 32.566,9.13C32.586,9.573 32.603,9.942 32.616,10.317L32.626,10.64C32.651,11.46 32.661,12.412 32.665,14.287L32.666,15.53L32.666,17.713C32.671,18.929 32.658,20.145 32.628,21.36L32.618,21.683C32.605,22.058 32.588,22.427 32.568,22.87C32.485,24.645 32.201,25.853 31.791,26.917C31.374,28.03 30.718,29.038 29.87,29.87C29.036,30.717 28.029,31.373 26.916,31.792C25.855,32.203 24.645,32.483 22.871,32.567C22.476,32.585 22.08,32.602 21.685,32.617L21.361,32.627C20.54,32.65 19.588,32.662 17.713,32.665L16.47,32.667L14.288,32.667C13.072,32.671 11.856,32.658 10.64,32.628L10.317,32.618C9.921,32.603 9.525,32.586 9.13,32.567C7.357,32.483 6.147,32.203 5.083,31.792C3.971,31.374 2.964,30.718 2.132,29.87C1.283,29.037 0.627,28.029 0.208,26.917C-0.203,25.855 -0.483,24.645 -0.567,22.87C-0.585,22.475 -0.602,22.079 -0.617,21.683L-0.625,21.36C-0.656,20.145 -0.67,18.929 -0.667,17.713L-0.667,14.287C-0.671,13.071 -0.659,11.855 -0.63,10.64L-0.618,10.317C-0.605,9.942 -0.588,9.573 -0.568,9.13C-0.485,7.355 -0.205,6.147 0.207,5.083C0.625,3.97 1.283,2.962 2.133,2.13C2.965,1.283 3.972,0.627 5.083,0.208C6.147,-0.203 7.355,-0.483 9.13,-0.567C9.573,-0.587 9.943,-0.603 10.317,-0.617L10.64,-0.627C11.855,-0.656 13.071,-0.669 14.287,-0.665L17.713,-0.667ZM16,7.667C13.79,7.667 11.67,8.545 10.107,10.108C8.545,11.67 7.667,13.79 7.667,16C7.667,18.21 8.545,20.33 10.107,21.893C11.67,23.455 13.79,24.333 16,24.333C18.21,24.333 20.33,23.455 21.892,21.893C23.455,20.33 24.333,18.21 24.333,16C24.333,13.79 23.455,11.67 21.892,10.108C20.33,8.545 18.21,7.667 16,7.667ZM16,11C16.657,11 17.307,11.129 17.913,11.38C18.52,11.632 19.071,12 19.536,12.464C20,12.928 20.368,13.479 20.62,14.086C20.871,14.693 21.001,15.343 21.001,15.999C21.001,16.656 20.872,17.306 20.62,17.913C20.369,18.519 20.001,19.071 19.537,19.535C19.073,19.999 18.522,20.368 17.915,20.619C17.308,20.871 16.658,21 16.002,21C14.675,21 13.404,20.473 12.466,19.536C11.528,18.598 11.002,17.326 11.002,16C11.002,14.674 11.528,13.402 12.466,12.465C13.404,11.527 14.675,11 16.002,11M24.751,5.167C24.199,5.167 23.669,5.386 23.278,5.777C22.888,6.168 22.668,6.698 22.668,7.25C22.668,7.803 22.888,8.333 23.278,8.723C23.669,9.114 24.199,9.333 24.751,9.333C25.304,9.333 25.834,9.114 26.225,8.723C26.615,8.333 26.835,7.803 26.835,7.25C26.835,6.698 26.615,6.168 26.225,5.777C25.834,5.386 25.304,5.167 24.751,5.167Z" fill="#353333"/>
</svg>
