<svg width="92" height="82" viewBox="0 0 92 82" fill="none" xmlns="http://www.w3.org/2000/svg" xmlns:xlink="http://www.w3.org/1999/xlink">
<path d="M82,81C84.387,81 86.676,80.052 88.364,78.364C90.052,76.676 91,74.387 91,72L91,50.022C91,47.635 90.052,45.346 88.364,43.658C86.676,41.97 84.387,41.022 82,41.022L69.508,41.022C69.508,37.86 69.694,34.698 70.066,31.536C70.624,28.188 71.554,25.212 72.856,22.608C74.158,20.004 75.835,17.955 77.887,16.461C79.927,14.787 82.531,13.95 85.699,13.95L85.699,0C80.491,0 75.931,1.116 72.019,3.348C68.134,5.552 64.796,8.604 62.254,12.276C59.695,16.318 57.81,20.75 56.674,25.398C55.526,30.526 54.964,35.767 55,41.022L55,72C55,74.387 55.948,76.676 57.636,78.364C59.324,80.052 61.613,81 64,81L82,81ZM28,81C30.387,81 32.676,80.052 34.364,78.364C36.052,76.676 37,74.387 37,72L37,50.022C37,47.635 36.052,45.346 34.364,43.658C32.676,41.97 30.387,41.022 28,41.022L15.508,41.022C15.508,37.86 15.694,34.698 16.066,31.536C16.63,28.188 17.56,25.212 18.856,22.608C20.158,20.004 21.835,17.955 23.887,16.461C25.927,14.787 28.531,13.95 31.699,13.95L31.699,0C26.491,0 21.931,1.116 18.019,3.348C14.134,5.552 10.796,8.604 8.254,12.276C5.695,16.318 3.81,20.75 2.674,25.398C1.526,30.526 0.964,35.767 1,41.022L1,72C1,74.387 1.948,76.676 3.636,78.364C5.324,80.052 7.613,81 10,81L28,81Z" fill="#0A0117"/>
</svg>
