<svg width="26" height="14" viewBox="0 0 26 14" fill="none" xmlns="http://www.w3.org/2000/svg" xmlns:xlink="http://www.w3.org/1999/xlink">
<path d="M11.187,0.05C11.413,-0.144 11.702,-0.251 12,-0.251C12.298,-0.251 12.587,-0.144 12.813,0.05L24.48,10.05C24.605,10.157 24.707,10.287 24.782,10.433C24.856,10.58 24.901,10.739 24.913,10.903C24.926,11.067 24.906,11.232 24.856,11.388C24.805,11.544 24.723,11.688 24.617,11.813C24.51,11.938 24.379,12.04 24.233,12.115C24.087,12.189 23.927,12.234 23.763,12.247C23.599,12.259 23.435,12.24 23.279,12.189C23.123,12.138 22.978,12.057 22.853,11.95L12,2.645L1.147,11.946C1.023,12.06 0.878,12.147 0.72,12.203C0.562,12.259 0.395,12.282 0.227,12.272C0.06,12.262 -0.104,12.219 -0.254,12.144C-0.404,12.07 -0.537,11.966 -0.646,11.838C-0.755,11.711 -0.838,11.563 -0.889,11.404C-0.939,11.244 -0.958,11.076 -0.942,10.909C-0.927,10.742 -0.878,10.58 -0.798,10.432C-0.719,10.285 -0.611,10.155 -0.48,10.05L11.187,0.05Z" clip-rule="evenodd" fill-rule="evenodd" fill="#8B4513"/>
</svg>
