<svg width="14" height="26" viewBox="0 0 14 26" fill="none" xmlns="http://www.w3.org/2000/svg" xmlns:xlink="http://www.w3.org/1999/xlink">
<path d="M11.813,-0.617C11.938,-0.51 12.041,-0.379 12.115,-0.233C12.189,-0.086 12.234,0.073 12.246,0.237C12.259,0.401 12.239,0.565 12.188,0.721C12.137,0.878 12.055,1.022 11.948,1.147L2.647,12L11.948,22.853C12.062,22.977 12.149,23.122 12.205,23.28C12.261,23.438 12.284,23.605 12.274,23.773C12.264,23.94 12.221,24.103 12.146,24.254C12.071,24.404 11.968,24.537 11.84,24.646C11.713,24.755 11.565,24.838 11.406,24.889C11.246,24.939 11.078,24.958 10.911,24.942C10.744,24.927 10.582,24.878 10.434,24.798C10.287,24.719 10.157,24.611 10.052,24.48L0.052,12.813C-0.142,12.587 -0.249,12.298 -0.249,12C-0.249,11.702 -0.142,11.413 0.052,11.187L10.052,-0.48C10.268,-0.731 10.574,-0.887 10.905,-0.912C11.235,-0.937 11.562,-0.831 11.813,-0.615L11.813,-0.617Z" clip-rule="evenodd" fill-rule="evenodd" fill="#D8C5B7"/>
</svg>
