<svg width="14" height="26" viewBox="0 0 14 26" fill="none" xmlns="http://www.w3.org/2000/svg" xmlns:xlink="http://www.w3.org/1999/xlink">
<path d="M0.187,-0.616C0.438,-0.832 0.765,-0.938 1.096,-0.913C1.426,-0.887 1.733,-0.731 1.948,-0.48L11.948,11.187C12.142,11.413 12.249,11.702 12.249,12C12.249,12.299 12.142,12.587 11.948,12.814L1.948,24.48C1.729,24.719 1.426,24.864 1.102,24.884C0.778,24.903 0.459,24.796 0.213,24.585C-0.034,24.374 -0.188,24.075 -0.218,23.752C-0.248,23.429 -0.151,23.106 0.052,22.853L9.353,12L0.052,1.147C-0.164,0.895 -0.271,0.569 -0.246,0.238C-0.221,-0.092 -0.066,-0.399 0.185,-0.615L0.187,-0.616Z" clip-rule="evenodd" fill-rule="evenodd" fill="#FFFFFF"/>
</svg>
