<svg width="26" height="14" viewBox="0 0 26 14" fill="none" xmlns="http://www.w3.org/2000/svg" xmlns:xlink="http://www.w3.org/1999/xlink">
<path d="M-0.617,0.187C-0.51,0.062 -0.379,-0.041 -0.233,-0.115C-0.086,-0.189 0.073,-0.234 0.237,-0.246C0.401,-0.259 0.565,-0.239 0.721,-0.188C0.878,-0.137 1.022,-0.055 1.147,0.052L12,9.353L22.853,0.052C23.106,-0.152 23.428,-0.248 23.752,-0.218C24.075,-0.188 24.373,-0.034 24.585,0.213C24.796,0.459 24.903,0.778 24.883,1.102C24.864,1.425 24.719,1.729 24.48,1.948L12.813,11.948C12.587,12.142 12.298,12.249 12,12.249C11.702,12.249 11.413,12.142 11.187,11.948L-0.48,1.948C-0.731,1.732 -0.887,1.426 -0.912,1.095C-0.937,0.765 -0.831,0.438 -0.615,0.187L-0.617,0.187Z" clip-rule="evenodd" fill-rule="evenodd" fill="#8B4513"/>
</svg>
