<svg width="14" height="26" viewBox="0 0 14 26" fill="none" xmlns="http://www.w3.org/2000/svg" xmlns:xlink="http://www.w3.org/1999/xlink">
<path d="M11.813,0.383C11.938,0.49 12.041,0.621 12.115,0.767C12.189,0.914 12.234,1.073 12.246,1.237C12.259,1.401 12.239,1.565 12.188,1.721C12.137,1.878 12.055,2.022 11.948,2.147L2.647,13L11.948,23.853C12.062,23.977 12.149,24.122 12.205,24.28C12.261,24.438 12.284,24.605 12.274,24.773C12.264,24.94 12.221,25.103 12.146,25.254C12.071,25.404 11.968,25.537 11.84,25.646C11.713,25.755 11.565,25.838 11.406,25.889C11.246,25.939 11.078,25.958 10.911,25.942C10.744,25.927 10.582,25.878 10.434,25.798C10.287,25.719 10.157,25.611 10.052,25.48L0.052,13.813C-0.142,13.587 -0.249,13.298 -0.249,13C-0.249,12.702 -0.142,12.413 0.052,12.187L10.052,0.52C10.268,0.269 10.574,0.113 10.905,0.088C11.235,0.063 11.562,0.169 11.813,0.385L11.813,0.383Z" clip-rule="evenodd" fill-rule="evenodd" fill="#F0E7E1"/>
</svg>
